<?xml version="1.0" encoding="utf-8"?>
<!-- Generator: Adobe Illustrator 19.1.0, SVG Export Plug-In . SVG Version: 6.00 Build 0)  -->
<svg version="1.1" id="Layer_1" xmlns="http://www.w3.org/2000/svg" xmlns:xlink="http://www.w3.org/1999/xlink" x="0px" y="0px"
	 viewBox="0 0 851.4 851.4" enable-background="new 0 0 851.4 851.4" xml:space="preserve">
<path fill="#C12126" d="M425.7,264.7c-88.9,0-161,72.1-161,161c0,88.9,72.1,161,161,161c88.9,0,161-72.1,161-161
	C586.7,336.8,514.6,264.7,425.7,264.7z M174.6,425.7c0-138.7,112.4-251,251-251c138.7,0,251.1,112.4,251.1,251
	c0,9.2-0.5,18.2-1.4,27.1c-1.9,24.5,16.1,43.2,40.4,43.2c41.3,0,45.7-53.2,45.7-70.3c0-185.4-150.3-335.6-335.6-335.6
	S90.1,240.3,90.1,425.7c0,185.4,150.3,335.6,335.6,335.6c98.4,0,187-42.4,248.4-109.9l69,57.9c-77.9,87.1-191.3,142-317.4,142
	C190.6,851.4,0,660.8,0,425.7S190.6,0,425.7,0c235.1,0,425.7,190.6,425.7,425.7c0,94.5-45,171.2-135.4,171.2
	c-39.8,0-64-18.2-77.2-38.6c-44.3,71.1-123.2,118.4-213.2,118.4C287,676.8,174.6,564.3,174.6,425.7z M425.7,352
	c40.7,0,73.7,33,73.7,73.7c0,40.7-33,73.7-73.7,73.7c-40.7,0-73.7-33-73.7-73.7S385,352,425.7,352z"/>
</svg>
