<svg width="22" height="22" viewBox="0 0 22 22" fill="none" xmlns="http://www.w3.org/2000/svg">
    <mask id="maskMailgun" mask-type="alpha" maskUnits="userSpaceOnUse" x="0" y="0" width="22" height="22">
        <path d="M11.0227 6.84062C8.723 6.84062 6.853 8.70822 6.853 11C6.853 13.2918 8.72403 15.1594 11.0227 15.1594C13.3213 15.1594 15.1924 13.2918 15.1924 11C15.1924 8.70822 13.3213 6.84062 11.0227 6.84062ZM4.53097 11C4.53097 7.42225 7.43909 4.51963 11.0227 4.51963C14.6063 4.51963 17.5141 7.42569 17.5141 11.0031C17.5141 11.2506 17.4914 11.4758 17.4694 11.7009C17.4247 12.331 17.875 12.8033 18.5061 12.8033C19.5656 12.8033 19.6749 11.4307 19.6749 10.9808C19.6749 6.18784 15.7974 2.31825 10.9966 2.31825C6.19575 2.31825 2.32169 6.18784 2.32169 10.9808C2.32169 15.7737 6.19884 19.6432 11 19.6432C13.5437 19.6432 15.8238 18.5408 17.4247 16.808L19.2053 18.293C17.1992 20.5432 14.2691 21.9608 11 21.9608C4.91391 21.9615 0 17.0335 0 10.9808C0 4.90531 4.93625 0 11 0C17.0861 0 22 4.928 22 10.9808C22 13.4111 20.8312 15.3911 18.5061 15.3911C17.4694 15.3911 16.8606 14.9184 16.5 14.4011C15.3505 16.2463 13.3217 17.4611 10.9773 17.4611C7.43841 17.4835 4.53063 14.5805 4.53063 11.0034L4.53097 11ZM11.0227 9.08738C12.0821 9.08738 12.9387 9.94228 12.9387 10.9773C12.9387 12.035 12.0821 12.8899 11.0227 12.8899C9.96325 12.8899 9.10663 12.0385 9.10663 10.9808C9.12931 9.94606 9.96325 9.09081 11.0227 9.09081V9.08738Z" fill="#C02126"/>
    </mask>
    <g mask="url(#maskMailgun)">
        <rect width="22" height="22" fill="#242748"/>
    </g>
</svg>
